<svg width="24" height="24" viewBox="0 0 24 24" fill="none" xmlns="http://www.w3.org/2000/svg">
<path d="M10.889 2H3.11112C2.49747 2 2 2.49746 2 3.1111V10.8888C2 11.5024 2.49747 11.9999 3.11112 11.9999H10.889C11.5027 11.9999 12.0001 11.5024 12.0001 10.8888V3.1111C12.0001 2.49746 11.5027 2 10.889 2Z" stroke="#A7ACB7" stroke-width="2" stroke-linecap="round" stroke-linejoin="round"/>
<path d="M21.4454 16.4445H17.0009C16.694 16.4445 16.4453 16.6932 16.4453 17V21.4444C16.4453 21.7513 16.694 22 17.0009 22H21.4454C21.7522 22 22.0009 21.7513 22.0009 21.4444V17C22.0009 16.6932 21.7522 16.4445 21.4454 16.4445Z" stroke="#A7ACB7" stroke-width="2" stroke-linecap="round" stroke-linejoin="round"/>
<path d="M21.4454 6.44438H17.0009C16.694 6.44438 16.4453 6.69311 16.4453 6.99993V11.4443C16.4453 11.7512 16.694 11.9999 17.0009 11.9999H21.4454C21.7522 11.9999 22.0009 11.7512 22.0009 11.4443V6.99993C22.0009 6.69311 21.7522 6.44438 21.4454 6.44438Z" stroke="#A7ACB7" stroke-width="2" stroke-linecap="round" stroke-linejoin="round"/>
<path d="M11.4454 16.4445H7.00087C6.69405 16.4445 6.44531 16.6932 6.44531 17V21.4444C6.44531 21.7513 6.69405 22 7.00087 22H11.4454C11.7522 22 12.0009 21.7513 12.0009 21.4444V17C12.0009 16.6932 11.7522 16.4445 11.4454 16.4445Z" stroke="#A7ACB7" stroke-width="2" stroke-linecap="round" stroke-linejoin="round"/>
</svg>
